<svg id="Layer_1" data-name="Layer 1" xmlns="http://www.w3.org/2000/svg" viewBox="0 0 179.55 179.55">
  <defs>
    <style>
      .cls-1 {
        fill: #fafaff;
      }
    </style>
  </defs>
  <g>
    <polygon class="cls-1" points="124.3 23.73 69.89 147.34 58.98 147.34 113.39 23.73 104.92 23.73 74.63 92.54 74.63 24.37 66.15 24.37 66.15 111.79 55.25 136.56 55.25 24.37 46.77 24.37 46.77 155.82 74.63 155.82 124.3 43 124.3 64.96 132.78 64.96 132.78 23.73 124.3 23.73"/>
    <path class="cls-1" d="M132.78,116.13v39.69H124.3l-10.91-24.64v24.64h-8.47l-13-29.38h8.48l.39.89a2.16,2.16,0,0,0,4.13-.87v-7a35.36,35.36,0,0,0-3-14.26h8.47l10,22.58a2.05,2.05,0,0,0,3.93-.83V116.13Z"/>
  </g>
</svg>
