<svg id="Layer_1" data-name="Layer 1" xmlns="http://www.w3.org/2000/svg" viewBox="0 0 99.28 8.84">
  <defs>
    <style>
      .cls-1 {
        fill: #edf2f4;
      }
    </style>
  </defs>
  <g>
    <path class="cls-1" d="M0,0H3.85V7.91h.4L5.71,6V0H9.57V6.07a.16.16,0,0,1,0,.08c-.18.25-.36.49-.56.73l-.57.72c-.11.14-.23.29-.33.44a3.75,3.75,0,0,1-.35.44,1,1,0,0,1-.52.23,6.48,6.48,0,0,1-.77.1l-.59,0H1.93l-.43,0L.85,8.75a3,3,0,0,1-.6-.14C.08,8.55,0,8.47,0,8.37Z"/>
    <path class="cls-1" d="M10.36,2.19h3.72V8.84H10.36Zm3.74-.66H10.38V.45c0-.1.08-.17.24-.23a2.67,2.67,0,0,1,.57-.13c.23,0,.44-.06.64-.07l.41,0H14.1Z"/>
    <path class="cls-1" d="M23.26,7.93v.91H16.75l-.4,0-.64-.07a2.74,2.74,0,0,1-.58-.14c-.16-.06-.24-.14-.24-.23V2.64c0-.09.08-.17.24-.23a2.77,2.77,0,0,1,.58-.13l.64-.07.4,0h4.79l.4,0,.64.07a2.63,2.63,0,0,1,.58.13c.16.06.24.14.24.23V6.5c0,.09-.08.16-.24.22a2.14,2.14,0,0,1-.58.14c-.23,0-.44.06-.64.07l-.4,0H20.05l-.59-.06a3.57,3.57,0,0,1-.54-.13.54.54,0,0,1-.31-.2V7.93ZM18.61,6.05h1.07V3.1H18.61Z"/>
    <path class="cls-1" d="M28.71,2.19h3.72V7.93h.8V2.19H37V8.38c0,.09-.08.17-.24.23a2.6,2.6,0,0,1-.58.14l-.63.07-.41,0h-.82l-.42,0-.58-.06a3.35,3.35,0,0,1-.54-.12.55.55,0,0,1-.31-.2c0,.08-.14.14-.31.2a3.78,3.78,0,0,1-.57.12L31,8.82l-.38,0H26.06l-.41,0L25,8.75a2.74,2.74,0,0,1-.58-.14c-.16-.06-.24-.14-.24-.23V2.19h3.73V7.93h.79Z"/>
    <path class="cls-1" d="M51.57,0h3.85V7.71a.79.79,0,0,1-.29.63,2,2,0,0,1-.72.34,5.07,5.07,0,0,1-.87.13l-.71,0h-.68l-.43,0-.61-.06a3.63,3.63,0,0,1-.56-.12c-.17-.06-.27-.12-.31-.2,0,.08-.14.14-.32.2a4.08,4.08,0,0,1-.59.12l-.62.06-.4,0H43.79l-.72,0a5,5,0,0,1-.86-.13,2,2,0,0,1-.72-.34.79.79,0,0,1-.29-.63V0h3.85l0,7.91h1.3V0h3.86V7.91h1.3Z"/>
    <path class="cls-1" d="M62.86,8.84H58.08l-.41,0L57,8.75a2.74,2.74,0,0,1-.58-.14c-.16-.06-.24-.14-.24-.23V2.64c0-.09.08-.17.24-.23A2.77,2.77,0,0,1,57,2.28l.64-.07.41,0h4.78l.4,0,.64.07a2.63,2.63,0,0,1,.58.13c.16.06.24.14.24.23V8.38c0,.09-.08.17-.24.23a2.6,2.6,0,0,1-.58.14l-.64.07Zm-2.92-.91H61V3.1H59.94Z"/>
    <path class="cls-1" d="M69.24,8.84H65.52V2.19h6.64l.4,0,.64.07a2.63,2.63,0,0,1,.58.13c.16.06.24.14.24.23v6.2H70.3V3.1H69.24Z"/>
    <path class="cls-1" d="M79.6,0h3.72V8.38c0,.09-.08.17-.24.23a2.6,2.6,0,0,1-.58.14l-.63.07-.41,0H76.68l-.41,0-.64-.07a2.5,2.5,0,0,1-.57-.14c-.16-.06-.24-.14-.24-.23V2.64c0-.09.08-.17.24-.23a2.53,2.53,0,0,1,.57-.13l.64-.07.41,0h1.07l.42,0a3,3,0,0,1,.58.06,3.61,3.61,0,0,1,.54.12.55.55,0,0,1,.31.2ZM78.54,7.93H79.6V3.1H78.54Z"/>
    <path class="cls-1" d="M92.49,7.93v.91H86l-.41,0-.64-.07a2.5,2.5,0,0,1-.57-.14c-.16-.06-.24-.14-.24-.23V2.64c0-.09.08-.17.24-.23a2.53,2.53,0,0,1,.57-.13l.64-.07.41,0h4.78l.41,0,.63.07a2.63,2.63,0,0,1,.58.13c.16.06.24.14.24.23V6.5c0,.09-.08.16-.24.22a2.14,2.14,0,0,1-.58.14c-.22,0-.44.06-.63.07l-.41,0H89.27l-.58-.06a3.43,3.43,0,0,1-.55-.13.48.48,0,0,1-.3-.2V7.93ZM87.84,6.05H88.9V3.1H87.84Z"/>
    <path class="cls-1" d="M97.14,8.84H93.42V2.64c0-.09.08-.17.24-.23a2.67,2.67,0,0,1,.57-.13l.64-.07.41,0h4V3.1H97.14Z"/>
  </g>
</svg>
